<svg xmlns="http://www.w3.org/2000/svg" xmlns:xlink="http://www.w3.org/1999/xlink" width="48" zoomAndPan="magnify" viewBox="0 0 36 36.000001" height="48" preserveAspectRatio="xMidYMid meet" version="1.0"><defs><clipPath id="a0a0aa30f4"><path d="M 0.488281 0 L 35.511719 0 L 35.511719 35.027344 L 0.488281 35.027344 Z M 0.488281 0 " clip-rule="nonzero"/></clipPath><clipPath id="9b53c14771"><path d="M 5.886719 5.035156 L 30.113281 5.035156 L 30.113281 29.992188 L 5.886719 29.992188 Z M 5.886719 5.035156 " clip-rule="nonzero"/></clipPath><clipPath id="a2d776295c"><path d="M 7.347656 5.035156 L 28.652344 5.035156 C 29.460938 5.035156 30.113281 5.6875 30.113281 6.496094 L 30.113281 28.53125 C 30.113281 29.339844 29.460938 29.992188 28.652344 29.992188 L 7.347656 29.992188 C 6.539062 29.992188 5.886719 29.339844 5.886719 28.53125 L 5.886719 6.496094 C 5.886719 5.6875 6.539062 5.035156 7.347656 5.035156 Z M 7.347656 5.035156 " clip-rule="nonzero"/></clipPath><clipPath id="5634b98027"><path d="M 8.320312 7.363281 L 25.101562 7.363281 L 25.101562 27.796875 L 8.320312 27.796875 Z M 8.320312 7.363281 " clip-rule="nonzero"/></clipPath><clipPath id="d6505dcd5c"><path d="M 9.484375 7.363281 L 26.269531 7.363281 L 26.269531 27.796875 L 9.484375 27.796875 Z M 9.484375 7.363281 " clip-rule="nonzero"/></clipPath></defs><g clip-path="url(#a0a0aa30f4)"><path fill="#735290" d="M 30.125 0 L 5.875 0 C 2.898438 0 0.488281 2.414062 0.488281 5.390625 L 0.488281 29.636719 C 0.488281 32.613281 2.898438 35.027344 5.875 35.027344 L 30.125 35.027344 C 33.101562 35.027344 35.511719 32.613281 35.511719 29.636719 L 35.511719 5.390625 C 35.511719 2.414062 33.101562 0 30.125 0 Z M 32.820312 29.636719 C 32.820312 31.125 31.609375 32.332031 30.125 32.332031 L 5.875 32.332031 C 4.386719 32.332031 3.179688 31.125 3.179688 29.636719 L 3.179688 5.390625 C 3.179688 3.902344 4.386719 2.695312 5.875 2.695312 L 30.125 2.695312 C 31.609375 2.695312 32.820312 3.902344 32.820312 5.390625 Z M 32.820312 29.636719 " fill-opacity="1" fill-rule="nonzero"/></g><g clip-path="url(#9b53c14771)"><g clip-path="url(#a2d776295c)"><path fill="#363457" d="M 5.886719 5.035156 L 30.113281 5.035156 L 30.113281 29.992188 L 5.886719 29.992188 Z M 5.886719 5.035156 " fill-opacity="1" fill-rule="nonzero"/></g></g><g clip-path="url(#5634b98027)"><path fill="#00a693" d="M 25.324219 8.40625 C 25.324219 8.097656 25.175781 7.804688 24.925781 7.617188 C 24.671875 7.433594 24.351562 7.378906 24.054688 7.472656 L 14.160156 10.550781 C 13.75 10.675781 13.472656 11.054688 13.472656 11.484375 L 13.472656 21.011719 C 13 20.777344 12.476562 20.632812 11.917969 20.632812 C 9.980469 20.632812 8.402344 22.207031 8.402344 24.144531 C 8.402344 26.082031 9.980469 27.660156 11.917969 27.660156 C 13.785156 27.660156 15.304688 26.1875 15.410156 24.34375 C 15.421875 24.277344 15.429688 16.035156 15.429688 16.035156 L 23.363281 13.566406 L 23.363281 17.164062 C 22.894531 16.929688 22.371094 16.785156 21.808594 16.785156 C 19.871094 16.785156 18.296875 18.359375 18.296875 20.296875 C 18.296875 22.234375 19.871094 23.8125 21.808594 23.8125 C 23.679688 23.8125 25.199219 22.339844 25.300781 20.496094 C 25.316406 20.429688 25.324219 8.40625 25.324219 8.40625 Z M 11.917969 25.699219 C 11.058594 25.699219 10.359375 25.003906 10.359375 24.144531 C 10.359375 23.285156 11.058594 22.589844 11.917969 22.589844 C 12.773438 22.589844 13.472656 23.285156 13.472656 24.144531 C 13.472656 25.003906 12.773438 25.699219 11.917969 25.699219 Z M 15.429688 13.984375 L 15.429688 12.207031 L 23.363281 9.738281 L 23.363281 11.515625 Z M 21.808594 21.855469 C 20.949219 21.855469 20.253906 21.15625 20.253906 20.296875 C 20.253906 19.441406 20.949219 18.742188 21.808594 18.742188 C 22.667969 18.742188 23.363281 19.441406 23.363281 20.296875 C 23.363281 21.15625 22.667969 21.855469 21.808594 21.855469 Z M 21.808594 21.855469 " fill-opacity="1" fill-rule="nonzero"/></g><g clip-path="url(#d6505dcd5c)"><path fill="#ffffff" d="M 26.492188 8.40625 C 26.492188 8.097656 26.34375 7.804688 26.089844 7.617188 C 25.839844 7.433594 25.519531 7.378906 25.21875 7.472656 L 15.328125 10.550781 C 14.917969 10.675781 14.640625 11.054688 14.640625 11.484375 L 14.640625 21.011719 C 14.167969 20.777344 13.644531 20.632812 13.085938 20.632812 C 11.148438 20.632812 9.570312 22.207031 9.570312 24.144531 C 9.570312 26.082031 11.148438 27.660156 13.085938 27.660156 C 14.953125 27.660156 16.472656 26.1875 16.578125 24.34375 C 16.589844 24.277344 16.597656 16.035156 16.597656 16.035156 L 24.53125 13.566406 L 24.53125 17.164062 C 24.0625 16.929688 23.539062 16.785156 22.976562 16.785156 C 21.039062 16.785156 19.460938 18.359375 19.460938 20.296875 C 19.460938 22.234375 21.039062 23.8125 22.976562 23.8125 C 24.847656 23.8125 26.367188 22.339844 26.46875 20.496094 C 26.484375 20.429688 26.492188 8.40625 26.492188 8.40625 Z M 13.085938 25.699219 C 12.226562 25.699219 11.527344 25.003906 11.527344 24.144531 C 11.527344 23.285156 12.226562 22.589844 13.085938 22.589844 C 13.941406 22.589844 14.640625 23.285156 14.640625 24.144531 C 14.640625 25.003906 13.941406 25.699219 13.085938 25.699219 Z M 16.597656 13.984375 L 16.597656 12.207031 L 24.53125 9.738281 L 24.53125 11.515625 Z M 22.976562 21.855469 C 22.117188 21.855469 21.421875 21.15625 21.421875 20.296875 C 21.421875 19.441406 22.117188 18.742188 22.976562 18.742188 C 23.835938 18.742188 24.53125 19.441406 24.53125 20.296875 C 24.53125 21.15625 23.835938 21.855469 22.976562 21.855469 Z M 22.976562 21.855469 " fill-opacity="1" fill-rule="nonzero"/></g></svg>